<svg width="1058" height="196" viewBox="0 0 1058 196" fill="none" xmlns="http://www.w3.org/2000/svg">
  <path d="M751.551 47.9453V78.0467L768.238 94.8545H786.529L803.217 78.0467V47.9453H830.196V82.9519L807.998 107.151L830.196 135.797V170.804H803.217V143.601L786.529 121.557H768.238L751.551 143.601V170.804H724.571V135.797L746.769 107.151L724.571 82.9519V47.9453H751.551Z" fill="#001623"/>
  <path d="M1027.89 196H998.015C1016.08 163.892 1025 132.007 1025 100.121C1025 68.2361 1016.08 36.1279 998.015 4.24267H1027.89C1047.74 35.459 1058 67.7902 1058 100.121C1058 132.453 1047.74 164.784 1027.89 196Z" fill="#001623" fill-opacity="0.15"/>
  <path d="M890.156 89.874L874.548 80.2861L888.372 59.9955L864.068 60.2185V40.3738L888.372 40.5968L874.548 20.3062L890.156 10.7183L903.312 32.1238L916.467 10.7183L932.075 20.3062L918.251 40.5968L942.555 40.3738V60.2185L918.251 59.9955L932.075 80.2861L916.467 89.874L903.312 68.4685L890.156 89.874Z" fill="#0AD9DC"/>
  <path d="M645.524 37.2525V10.9416H676.294V37.2525H645.524ZM602.044 171.483V147.401H646.416V76.0499H604.274V51.9688H676.74V147.401H714.423V171.483H602.044Z" fill="#001623"/>
  <path d="M475.242 48.6152H502.222V55.9733L514.486 48.6152H562.871L582.939 78.2707V171.474H555.959V83.1761L549.493 73.5883H506.236L502.222 78.2707V171.474H475.242V48.6152Z" fill="#001623"/>
  <path d="M370.678 48.1686H437.962L455.8 70.3455V116.814H376.475V135.128L383.611 145.608H427.928L440.192 132.899L455.8 152.52L437.516 171.473H370.232L350.833 142.486V68.6822L370.678 48.1686ZM376.475 77.1251V95.8006H432.255V76.9021L428.687 71.7737H381.604L376.475 77.1251Z" fill="#001623"/>
  <path d="M225.691 0H252.671V55.9664L264.711 48.6083H312.65L333.387 77.8178V171.467H306.407V82.9462L299.941 73.5813H257.13L252.671 77.8178V171.467H225.691V0Z" fill="#001623"/>
  <path d="M132.149 171.486V76.0532H102.047V51.972H132.149V48.6274C132.149 24.5463 143.297 13.1746 167.825 13.1746H207.291V37.2557H174.737C166.041 37.2557 162.25 41.2693 162.25 48.8504V51.972H206.399V76.0532H162.25V171.486H132.149Z" fill="#001623"/>
  <path d="M30.1014 196C10.2568 164.784 0 132.453 0 100.121C0 67.7902 10.2568 35.459 30.1014 4.24267H59.9799C41.919 36.1279 33.0001 68.2361 33.0001 100.121C33.0001 132.007 41.919 163.892 59.9799 196H30.1014Z" fill="#001623" fill-opacity="0.15"/>
</svg>
